<svg width="49" height="7" viewBox="0 0 49 7" fill="none" xmlns="http://www.w3.org/2000/svg">
<path d="M48 3H0V4H48V3Z" fill="#546276"/>
<path d="M43.6443 6.53692C43.4605 6.53692 43.2797 6.4688 43.1635 6.34156C42.9714 6.13011 43.0301 5.83399 43.2957 5.6812L47.0735 3.49719C47.1701 3.44137 47.2253 3.37798 47.2253 3.32311C47.2259 3.26824 47.1707 3.20438 47.0741 3.14808L43.2928 0.940421C43.0289 0.786211 42.9714 0.490091 43.1647 0.279589C43.3574 0.0686148 43.7273 0.0227307 43.9929 0.176941L47.7743 2.3846C48.1798 2.62112 48.4116 2.96407 48.4104 3.325C48.4098 3.68593 48.1756 4.02793 47.7689 4.26303L43.9912 6.44704C43.8868 6.50759 43.7653 6.53692 43.6443 6.53692Z" fill="#546276"/>
</svg>
