<svg width="49" height="7" viewBox="0 0 49 7" fill="none" xmlns="http://www.w3.org/2000/svg">
<path d="M1 3H49V4H1V3Z" fill="#546276"/>
<path d="M5.35567 6.53692C5.53946 6.53692 5.72029 6.4688 5.83649 6.34156C6.02858 6.13011 5.96989 5.83399 5.70428 5.6812L1.9265 3.49719C1.82987 3.44137 1.77473 3.37798 1.77473 3.32311C1.77414 3.26824 1.82927 3.20438 1.92591 3.14808L5.70724 0.940421C5.97107 0.786211 6.02858 0.490091 5.83531 0.279589C5.64262 0.0686148 5.27267 0.0227307 5.00706 0.176941L1.22573 2.3846C0.820207 2.62112 0.588396 2.96407 0.589581 3.325C0.590174 3.68593 0.824358 4.02793 1.23107 4.26303L5.00884 6.44704C5.11319 6.50759 5.23472 6.53692 5.35567 6.53692Z" fill="#546276"/>
</svg>
