<svg width="36" height="35" viewBox="0 0 36 35" fill="white" xmlns="http://www.w3.org/2000/svg">

<path fill-rule="evenodd" clip-rule="evenodd" d="M17.9442 0C8.03464 0 0 8.03464 0 17.9442C0 25.8719 5.1405 32.5991 12.2718 34.9703C13.1692 35.1367 13.499 34.581 13.499 34.1056C13.499 33.6777 13.4812 32.2633 13.4753 30.7658C8.48035 31.8503 7.42847 28.6501 7.42847 28.6501C6.61134 26.5761 5.43764 26.0234 5.43764 26.0234C3.80932 24.9092 5.55947 24.9329 5.55947 24.9329C7.36013 25.0607 8.31098 26.7811 8.31098 26.7811C9.91256 29.5237 12.5096 28.7304 13.5317 28.2728C13.6922 27.1139 14.1587 26.3206 14.6698 25.8719C10.6851 25.4173 6.49546 23.8781 6.49546 17.0053C6.49546 15.0471 7.19671 13.4455 8.34366 12.1886C8.15646 11.737 7.54436 9.91256 8.516 7.44036C8.516 7.44036 10.0225 6.95899 13.4515 9.27965C14.8837 8.88148 16.4169 8.6824 17.9442 8.67646C19.4685 8.6824 21.0048 8.88148 22.4399 9.27965C25.8659 6.95899 27.3695 7.44036 27.3695 7.44036C28.3471 9.91256 27.732 11.737 27.5448 12.1886C28.6947 13.4455 29.39 15.0471 29.39 17.0053C29.39 23.8959 25.1914 25.4143 21.1979 25.86C21.8427 26.4157 22.4162 27.5091 22.4162 29.182C22.4162 31.5829 22.3954 33.5143 22.3954 34.1056C22.3954 34.584 22.7192 35.1426 23.6285 34.9673C30.7539 32.5932 35.8884 25.8689 35.8884 17.9442C35.8884 8.03464 27.8538 0 17.9442 0Z"/>
<path d="M6.79554 25.7619C6.75691 25.8511 6.61429 25.8778 6.48652 25.8154C6.35578 25.756 6.28446 25.6342 6.32606 25.545C6.36469 25.4529 6.50435 25.4292 6.63509 25.4886C6.76583 25.551 6.84011 25.6728 6.79554 25.7619Z"/>
<path d="M7.5235 26.5731C7.43733 26.6534 7.27094 26.6147 7.15802 26.4899C7.03917 26.3651 7.01837 26.1987 7.10454 26.1185C7.19368 26.0383 7.35414 26.0769 7.47299 26.2017C7.58888 26.3265 7.61265 26.4929 7.5235 26.5731Z"/>
<path d="M8.23078 27.6072C8.12084 27.6844 7.93959 27.6131 7.82965 27.4527C7.71971 27.2922 7.71971 27.102 7.83262 27.0248C7.94256 26.9475 8.12084 27.0159 8.23376 27.1763C8.3437 27.3368 8.3437 27.5299 8.23078 27.6072Z"/>
<path d="M9.19939 28.6056C9.10133 28.7155 8.89037 28.6858 8.73882 28.5372C8.58134 28.3916 8.53974 28.1866 8.6378 28.0796C8.73882 27.9697 8.94682 28.0024 9.10133 28.148C9.25585 28.2906 9.30339 28.4986 9.19939 28.6056Z"/>
<path d="M10.5366 29.185C10.492 29.3246 10.2899 29.39 10.0879 29.3306C9.88584 29.2682 9.75213 29.1048 9.79373 28.9621C9.83532 28.8195 10.0374 28.7541 10.2424 28.8165C10.4474 28.8789 10.5782 29.0424 10.5366 29.185Z"/>
<path d="M12.0045 29.292C12.0104 29.4405 11.8381 29.5624 11.6241 29.5653C11.4102 29.5713 11.2349 29.4494 11.2349 29.3038C11.2349 29.1553 11.4042 29.0335 11.6182 29.0305C11.8291 29.0275 12.0045 29.1464 12.0045 29.292Z"/>
<path d="M13.3712 29.0602C13.3979 29.2058 13.2494 29.3514 13.0354 29.393C12.8274 29.4316 12.6343 29.3425 12.6076 29.1998C12.5808 29.0513 12.7324 28.9027 12.9403 28.8641C13.1543 28.8255 13.3445 28.9146 13.3712 29.0602Z"/>

</svg>
