<svg width="9" height="25" viewBox="0 0 9 25" fill="none" xmlns="http://www.w3.org/2000/svg">
<g clip-path="url(#clip0)">
<path d="M2.33432 10.6213H0.0422363L0.133821 10.1658C0.331841 9.2376 0.532335 8.30939 0.72788 7.38117C0.742732 7.30196 0.77491 7.28711 0.846692 7.28711H7.7254C7.67342 7.53463 7.6264 7.76731 7.57689 7.99998C7.33927 9.12539 7.10082 10.2541 6.86154 11.3861C6.53151 12.9224 6.20643 14.4587 5.8863 15.995C5.59174 17.3861 5.29471 18.7747 5.00758 20.1658C4.95297 20.4193 4.91903 20.6767 4.9061 20.9356C4.89758 21.0251 4.90826 21.1153 4.93742 21.2003C4.96657 21.2852 5.01353 21.363 5.07515 21.4284C5.13678 21.4938 5.21165 21.5452 5.29476 21.5793C5.37787 21.6135 5.46731 21.6294 5.55709 21.6262C5.96442 21.6353 6.36839 21.5506 6.73778 21.3787C6.91105 21.3119 7.07689 21.2277 7.26253 21.1435C7.24768 21.2302 7.23531 21.3044 7.21798 21.3911C7.05214 22.1856 6.8863 22.9827 6.72293 23.7772C6.71028 23.8237 6.68128 23.8642 6.64125 23.8911C6.00548 24.2693 5.3072 24.5309 4.57937 24.6633C4.14791 24.7453 3.70904 24.7818 3.26996 24.7723C2.62867 24.7829 1.99458 24.6358 1.42342 24.344C1.09227 24.1637 0.807897 23.9083 0.593006 23.5985C0.378115 23.2886 0.238667 22.9328 0.185801 22.5594C0.0912753 22.0126 0.0971466 21.4531 0.203128 20.9084C0.366494 20.0247 0.549662 19.1435 0.732831 18.2624C0.980355 17.1336 1.21055 16.0074 1.44818 14.8812C1.7221 13.5858 1.99768 12.2904 2.27491 10.995C2.28234 10.8589 2.30709 10.745 2.33432 10.6213Z" fill="#36495C"/>
<path d="M6.68316 0C7.58663 0.0346535 8.26485 0.366337 8.66336 1.15842C8.79911 1.43642 8.87478 1.73991 8.88544 2.0491C8.8961 2.3583 8.84152 2.66627 8.72524 2.95297C8.52742 3.54082 8.17183 4.063 7.69731 4.46242C7.2228 4.86185 6.64763 5.12317 6.03465 5.21782C5.72723 5.28454 5.40885 5.28229 5.1024 5.21124C4.79596 5.1402 4.50907 5.00211 4.26237 4.80693C4.06552 4.65419 3.90125 4.46359 3.77925 4.24635C3.65724 4.02912 3.57996 3.78965 3.55197 3.54208C3.41088 2.49257 3.81682 1.64109 4.54207 0.928218C4.99425 0.485194 5.56664 0.184798 6.18811 0.0643564C6.36138 0.029703 6.54455 0.0173267 6.68316 0Z" fill="#36495C"/>
</g>
<defs>
<clipPath id="clip0">
<rect width="8.91089" height="25" fill="white"/>
</clipPath>
</defs>
</svg>
