<svg width="13" height="17" viewBox="0 0 13 17" fill="#36495C" xmlns="http://www.w3.org/2000/svg">
<path d="M12.9829 9.86043V9.5787C12.9829 9.15611 12.6307 8.80395 12.2081 8.80395H3.4042L2.60597 4.0146C2.60597 3.99113 2.60597 3.94417 2.60597 3.92069V0.633885C2.60597 0.281726 2.32424 0 1.97209 0H0.633885C0.281727 0 0 0.281726 0 0.633885V4.10851C0 4.15547 0 4.17894 0 4.2259L1.97209 15.8941C2.01904 16.1993 2.27729 16.4106 2.60597 16.4106H11.8325C12.1142 16.4106 12.3725 16.1993 12.4429 15.9175L12.9829 13.6637C13.0768 13.2646 12.7716 12.889 12.3725 12.889H4.62501C4.31981 12.889 4.06156 12.6777 3.99113 12.3725L3.7094 10.6352H12.2081C12.6307 10.6352 12.9829 10.283 12.9829 9.86043Z" fill="inherit"/>
</svg>
