<svg width="16" height="19" viewBox="0 0 16 19" fill="#7F8998" xmlns="http://www.w3.org/2000/svg">
<path d="M8 0C4 0 0 0.5 0 4V13.5C0 15.43 1.57 17 3.5 17L2 18.5V19H4.23L6.23 17H10L12 19H14V18.5L12.5 17C14.43 17 16 15.43 16 13.5V4C16 0.5 12.42 0 8 0ZM3.5 15C2.67 15 2 14.33 2 13.5C2 12.67 2.67 12 3.5 12C4.33 12 5 12.67 5 13.5C5 14.33 4.33 15 3.5 15ZM7 8H2V4H7V8ZM9 8V4H14V8H9ZM12.5 15C11.67 15 11 14.33 11 13.5C11 12.67 11.67 12 12.5 12C13.33 12 14 12.67 14 13.5C14 14.33 13.33 15 12.5 15Z" fill="inherit"/>
</svg>
