<svg width="197" height="52" viewBox="0 0 197 52" fill="none" xmlns="http://www.w3.org/2000/svg">
<rect x="77" width="120" height="52" fill="#27475C"/>
<path d="M105.112 20C105.112 17.824 105.112 12.832 97.624 12.832H96.856C89.176 12.832 89.176 18.72 89.176 23.712V25.632C89.176 31.008 89.176 36.512 97.24 36.512C98.392 36.512 100.184 36.512 104.536 35.424V32.096H103.384L99.288 33.12H98.008C93.016 33.12 93.016 33.12 93.016 25.248V24.096C93.016 16.224 93.016 16.224 97.24 16.224C100.632 16.224 100.632 16.224 101.784 20.832L105.112 20ZM115.235 33.312C111.779 33.312 111.779 33.312 111.779 29.28H115.043C118.499 29.28 119.267 29.28 120.995 28.896L121.763 28.704V27.168C121.763 24.288 121.763 19.488 115.235 19.488H114.851C108.323 19.488 108.323 24.288 108.323 27.168V28.704C108.323 31.968 108.323 36.384 115.235 36.384C116.195 36.384 117.731 36.384 120.803 35.616V32.544H120.035L116.963 33.312H115.235ZM111.779 26.784C111.779 22.56 111.779 22.56 115.043 22.56C118.307 22.56 118.307 22.56 118.307 26.784H111.779ZM132.267 36.384C133.227 36.384 134.763 36.384 137.835 35.616V32.544H137.067L133.963 33.312H133.419C128.811 33.312 128.811 33.312 128.811 27.936C128.811 22.56 128.811 22.56 132.075 22.56C134.571 22.56 134.571 22.56 135.339 25.632L138.411 24.864C138.411 23.328 138.411 19.488 132.267 19.488H131.883C125.355 19.488 125.355 24.288 125.355 27.168V28.704C125.355 31.968 125.355 36.384 132.267 36.384ZM140.425 19.872V22.656H145.513V36H148.777V22.656H153.865V19.872H140.425ZM163.168 36C166.24 36 169.888 36 169.888 30.624C169.888 28.896 169.888 25.056 164.32 25.056C162.784 25.056 161.248 25.44 160.48 25.632V19.872H157.216V36H163.168ZM163.744 27.936C166.432 27.936 166.432 27.936 166.432 30.624C166.432 33.312 166.432 33.312 163.744 33.312H160.48V27.936H163.744ZM177.105 31.392C175.185 31.392 175.185 32.544 175.185 33.312V34.08C175.185 34.848 175.185 36 177.105 36H178.257C180.177 36 180.177 34.848 180.177 34.08V33.312C180.177 32.544 180.177 31.392 178.257 31.392H177.105ZM178.449 12.832C177.681 12.832 176.465 12.832 172.113 13.92V17.056H173.265L177.361 16.032H178.641C180.753 16.032 180.753 16.032 180.753 18.72C180.753 21.024 180.753 21.024 178.705 22.56L176.145 24.48V28.32H179.217V26.048L180.625 24.992C184.593 22.016 184.593 20.064 184.593 18.528C184.593 16.992 184.593 12.832 178.449 12.832Z" fill="white"/>
<rect width="77" height="52" fill="#E41E13"/>
<path d="M16.136 13.344V36H19.592V16.416H28.04V13.344H16.136ZM30.9353 36H42.5833V40.608H45.7193V33.312H43.0312V19.872H31.9913V21.792C31.9913 25.6 31.5753 29.664 29.6873 33.312H27.7993V40.608H30.9353V36ZM35.1273 22.688H39.7673V33.312H33.2073C34.7433 29.632 35.1273 25.728 35.1273 22.688ZM55.204 33.312C51.748 33.312 51.748 33.312 51.748 29.28H55.012C58.468 29.28 59.236 29.28 60.964 28.896L61.732 28.704V27.168C61.732 24.288 61.732 19.488 55.204 19.488H54.82C48.292 19.488 48.292 24.288 48.292 27.168V28.704C48.292 31.968 48.292 36.384 55.204 36.384C56.164 36.384 57.7 36.384 60.772 35.616V32.544H60.004L56.932 33.312H55.204ZM51.748 26.784C51.748 22.56 51.748 22.56 55.012 22.56C58.276 22.56 58.276 22.56 58.276 26.784H51.748Z" fill="white"/>
</svg>
